<svg width="20" height="20" viewBox="0 0 20 20" fill="none" xmlns="http://www.w3.org/2000/svg">
<rect width="20" height="20" rx="10" fill="#BBCBED"/>
<path d="M6.50209 14.784C6.04609 14.784 5.61409 14.72 5.20609 14.592C4.79809 14.472 4.43409 14.292 4.11409 14.052C3.80209 13.812 3.55409 13.52 3.37009 13.176C3.19409 12.84 3.10609 12.452 3.10609 12.012C3.10609 11.82 3.12209 11.616 3.15409 11.4C3.19409 11.176 3.25009 10.94 3.32209 10.692C3.40209 10.436 3.49809 10.168 3.61009 9.888L4.47409 10.224C4.39409 10.448 4.32209 10.66 4.25809 10.86C4.20209 11.06 4.15809 11.248 4.12609 11.424C4.10209 11.6 4.09009 11.768 4.09009 11.928C4.09009 12.336 4.19809 12.68 4.41409 12.96C4.63809 13.24 4.93409 13.448 5.30209 13.584C5.67809 13.728 6.09009 13.8 6.53809 13.8C7.08209 13.8 7.53809 13.736 7.90609 13.608C8.27409 13.488 8.56609 13.324 8.78209 13.116C8.99809 12.916 9.15009 12.692 9.23809 12.444C9.33409 12.196 9.38209 11.944 9.38209 11.688C9.38209 11.336 9.35409 11.004 9.29809 10.692C9.25009 10.38 9.18209 10.076 9.09409 9.78C9.01409 9.476 8.92609 9.168 8.83009 8.856L9.80209 8.592C9.89009 8.896 9.95809 9.144 10.0061 9.336C10.0541 9.52 10.0901 9.668 10.1141 9.78C10.1461 9.892 10.1741 9.992 10.1981 10.08C10.2861 10.376 10.3861 10.596 10.4981 10.74C10.6181 10.876 10.7541 10.968 10.9061 11.016C11.0661 11.056 11.2461 11.076 11.4461 11.076C11.6061 11.076 11.7461 11.056 11.8661 11.016C11.9941 10.976 12.1101 10.88 12.2141 10.728C12.3261 10.576 12.4221 10.332 12.5021 9.996C12.5901 9.66 12.6701 9.2 12.7421 8.616L13.6541 8.784C13.6301 8.928 13.6021 9.104 13.5701 9.312C13.5381 9.52 13.5061 9.728 13.4741 9.936C13.4501 10.136 13.4381 10.304 13.4381 10.44C13.4381 10.552 13.4621 10.66 13.5101 10.764C13.5661 10.86 13.6701 10.936 13.8221 10.992C13.9821 11.048 14.2181 11.076 14.5301 11.076C14.7781 11.076 14.9901 11.06 15.1661 11.028C15.3501 10.988 15.4901 10.896 15.5861 10.752C15.6901 10.6 15.7421 10.364 15.7421 10.044C15.7421 9.844 15.7101 9.608 15.6461 9.336C15.5821 9.056 15.4981 8.76 15.3941 8.448C15.2901 8.136 15.1781 7.828 15.0581 7.524L16.0301 7.164C16.1341 7.42 16.2301 7.712 16.3181 8.04C16.4141 8.368 16.4941 8.692 16.5581 9.012C16.6221 9.332 16.6541 9.612 16.6541 9.852C16.6541 10.26 16.5981 10.604 16.4861 10.884C16.3821 11.164 16.2341 11.392 16.0421 11.568C15.8501 11.744 15.6221 11.872 15.3581 11.952C15.1021 12.024 14.8221 12.06 14.5181 12.06C14.2381 12.06 13.9941 12.036 13.7861 11.988C13.5861 11.94 13.4141 11.868 13.2701 11.772C13.1341 11.668 13.0261 11.54 12.9461 11.388C12.8741 11.228 12.8221 11.044 12.7901 10.836H13.1981C13.0701 11.124 12.9261 11.36 12.7661 11.544C12.6061 11.72 12.4141 11.852 12.1901 11.94C11.9741 12.02 11.7061 12.06 11.3861 12.06C11.1381 12.06 10.9261 12.028 10.7501 11.964C10.5741 11.892 10.4261 11.804 10.3061 11.7C10.1941 11.588 10.1061 11.464 10.0421 11.328C9.97809 11.184 9.93009 11.04 9.89809 10.896L10.3901 11.508C10.3501 11.892 10.2621 12.276 10.1261 12.66C9.99809 13.044 9.79009 13.396 9.50209 13.716C9.22209 14.044 8.83809 14.304 8.35009 14.496C7.86209 14.688 7.24609 14.784 6.50209 14.784ZM12.6341 5.46C12.4661 5.46 12.3221 5.404 12.2021 5.292C12.0901 5.172 12.0341 5.032 12.0341 4.872C12.0341 4.712 12.0901 4.572 12.2021 4.452C12.3221 4.332 12.4661 4.272 12.6341 4.272C12.7941 4.272 12.9301 4.332 13.0421 4.452C13.1621 4.572 13.2221 4.712 13.2221 4.872C13.2221 5.032 13.1621 5.172 13.0421 5.292C12.9301 5.404 12.7941 5.46 12.6341 5.46ZM11.8181 6.78C11.6501 6.78 11.5061 6.724 11.3861 6.612C11.2741 6.492 11.2181 6.352 11.2181 6.192C11.2181 6.032 11.2741 5.892 11.3861 5.772C11.5061 5.652 11.6501 5.592 11.8181 5.592C11.9781 5.592 12.1141 5.652 12.2261 5.772C12.3461 5.892 12.4061 6.032 12.4061 6.192C12.4061 6.352 12.3461 6.492 12.2261 6.612C12.1141 6.724 11.9781 6.78 11.8181 6.78ZM13.4501 6.78C13.2821 6.78 13.1381 6.724 13.0181 6.612C12.9061 6.492 12.8501 6.352 12.8501 6.192C12.8501 6.032 12.9061 5.892 13.0181 5.772C13.1381 5.652 13.2821 5.592 13.4501 5.592C13.6101 5.592 13.7461 5.652 13.8581 5.772C13.9781 5.892 14.0381 6.032 14.0381 6.192C14.0381 6.352 13.9781 6.492 13.8581 6.612C13.7461 6.724 13.6101 6.78 13.4501 6.78Z" fill="black"/>
</svg>
