<svg width="22" height="21" viewBox="0 0 22 21" fill="none" xmlns="http://www.w3.org/2000/svg">
<path fill-rule="evenodd" clip-rule="evenodd" d="M15.2731 16.7352C15.3041 16.6791 15.3339 16.6296 15.3592 16.5784C15.3752 16.5456 15.3998 16.539 15.4346 16.5399C15.6427 16.5454 15.8509 16.5514 16.0592 16.5533C16.2361 16.5551 16.4134 16.552 16.5905 16.5501C16.79 16.5478 16.9896 16.538 17.1889 16.5433C17.4544 16.5506 17.713 16.5994 17.9532 16.7104C18.24 16.843 18.4569 17.0451 18.6048 17.3113C18.6993 17.4812 18.754 17.6615 18.7759 17.853C18.8075 18.1305 18.7867 18.4015 18.693 18.6669C18.5769 18.9957 18.3564 19.2474 18.0502 19.436C17.8145 19.5811 17.556 19.6668 17.2789 19.7158C16.9857 19.7678 16.6916 19.751 16.3974 19.7519C16.0748 19.7531 15.7524 19.7466 15.4298 19.7431C15.3734 19.7426 15.3653 19.7326 15.3802 19.682L15.394 19.6354C15.4254 19.5426 15.4423 19.5385 15.5426 19.523C15.612 19.5124 15.6841 19.4879 15.7423 19.4517C15.7761 19.4306 15.7901 19.3758 15.8033 19.3335C15.8147 19.2966 15.8152 19.256 15.8156 19.2171C15.8202 18.6261 15.825 18.0354 15.8275 17.4448C15.8281 17.2956 15.8244 17.146 15.8156 16.9969C15.8093 16.8925 15.75 16.8211 15.6177 16.7964C15.5148 16.7773 15.4112 16.7625 15.3078 16.7454L15.2731 16.7352ZM18.2265 18.166C18.2126 18.0483 18.2058 17.9296 18.1834 17.8137C18.1297 17.5354 18 17.293 17.7722 17.103C17.4038 16.7961 16.9604 16.7488 16.4955 16.7854C16.3897 16.7937 16.3669 16.8277 16.3653 16.9298C16.3627 17.0747 16.3601 17.2197 16.36 17.3646C16.3592 17.8242 16.3592 18.2838 16.36 18.7435C16.3601 18.8742 16.3616 19.005 16.3657 19.1354C16.3701 19.269 16.4217 19.382 16.5609 19.4338C16.7805 19.5154 17.0114 19.525 17.2418 19.4917C17.6098 19.4388 17.8672 19.2374 18.0399 18.9357C18.1766 18.6962 18.2152 18.4348 18.2265 18.166ZM19.1211 19.731C19.1167 19.6594 19.1479 19.6002 19.1865 19.5459C19.1969 19.5312 19.233 19.5319 19.2578 19.5273L19.4683 19.4881C19.5427 19.4733 19.5818 19.4263 19.5923 19.3578C19.5993 19.3126 19.6059 19.2669 19.6065 19.2212C19.6111 18.8594 19.6155 18.4976 19.6173 18.1358C19.6191 17.7735 19.6177 17.4112 19.6177 17.0489L19.616 16.9797C19.6085 16.8632 19.5486 16.8028 19.4255 16.7857L19.1586 16.7476C19.1257 16.7435 19.1137 16.7286 19.1257 16.7012C19.1462 16.6545 19.1659 16.606 19.1949 16.5639C19.2058 16.5483 19.2423 16.5423 19.2669 16.5428C19.3944 16.5445 19.5219 16.5535 19.6495 16.5533L20.7593 16.5471C20.9731 16.547 21.1796 16.582 21.3715 16.6781C21.5825 16.7837 21.7007 16.9471 21.7345 17.1696C21.7698 17.4034 21.6942 17.6004 21.5124 17.7569C21.4376 17.8215 21.3408 17.8635 21.2541 17.916L21.2258 17.9326C21.3062 17.9603 21.3828 17.9843 21.4574 18.013C21.6757 18.097 21.8493 18.2283 21.9412 18.4379C22.0137 18.6034 22.0137 18.7759 21.9707 18.9474C21.9039 19.2158 21.7156 19.3944 21.4707 19.5295C21.2408 19.6563 20.9921 19.7302 20.7271 19.7426C20.4828 19.7541 20.2374 19.7498 19.9925 19.7524L19.8506 19.7531C19.6147 19.7481 19.3786 19.7424 19.1426 19.7365L19.1211 19.731ZM20.1383 18.6805H20.1407C20.1407 18.794 20.1391 18.9075 20.1413 19.0211C20.1427 19.0946 20.14 19.1701 20.1569 19.2409C20.1822 19.3466 20.2337 19.442 20.3601 19.4724C20.5308 19.5136 20.7051 19.5219 20.8778 19.4938C21.094 19.4584 21.2665 19.3566 21.3612 19.1632C21.4313 19.0195 21.4418 18.8672 21.4177 18.7115C21.3858 18.5066 21.2699 18.3578 21.0771 18.2604C20.9507 18.1964 20.8159 18.1572 20.6722 18.152C20.5113 18.1463 20.3502 18.146 20.1892 18.1413C20.144 18.1401 20.1378 18.1617 20.138 18.1965C20.1389 18.3577 20.1383 18.519 20.1383 18.6805ZM20.481 17.9084C20.569 17.9043 20.6685 17.9031 20.7676 17.8937C20.9572 17.876 21.0907 17.7864 21.1604 17.6161C21.1958 17.5297 21.1943 17.4407 21.1953 17.3508C21.198 17.1167 21.0525 16.9248 20.8157 16.8454C20.6329 16.7842 20.4444 16.7832 20.2548 16.788C20.178 16.7899 20.1437 16.8215 20.1426 16.8941L20.1312 17.8411C20.1306 17.8787 20.1479 17.8949 20.1868 17.8962L20.481 17.9084Z" fill="white"/>
<path fill-rule="evenodd" clip-rule="evenodd" d="M1.17884 19.549L1.16543 19.7119C1.0405 19.7119 0.925307 19.711 0.810115 19.7122C0.593142 19.7143 0.376169 19.7176 0.159013 19.7205L0.138069 19.7217C0.10702 19.7183 0.0506186 19.7183 0.0491488 19.7096C0.0399629 19.6612 0.0429024 19.6103 0.0452907 19.5601C0.0454744 19.5544 0.0666022 19.5471 0.0789114 19.5444L0.247749 19.509C0.353021 19.4833 0.390132 19.4407 0.395092 19.3385C0.400788 19.2234 0.406483 19.1082 0.407034 18.9931C0.408688 18.7098 0.40685 18.4269 0.408136 18.1436C0.40832 18.0773 0.383886 18.028 0.318114 18.0011C0.239849 17.9686 0.161218 17.9369 0.0820346 17.9069C0.0445558 17.8927 -0.00412985 17.8849 0.000279412 17.8377C0.00468868 17.7895 0.0519046 17.7769 0.0963647 17.7675C0.280452 17.7279 0.464722 17.6895 0.648258 17.6474C0.707415 17.6337 0.764001 17.6108 0.834733 17.5877C0.838407 17.6236 0.845205 17.6577 0.84447 17.6919L0.83363 17.8542C0.833447 17.8725 0.843551 17.897 0.858065 17.9072C0.866884 17.9136 0.896463 17.902 0.91116 17.8913C1.06806 17.7792 1.23414 17.6824 1.42355 17.626C1.71695 17.5385 1.96883 17.6196 2.1452 17.8572C2.2073 17.9408 2.20748 17.9408 2.29365 17.8824C2.44154 17.7814 2.59623 17.6924 2.7693 17.6337C3.14923 17.5049 3.51428 17.6684 3.64637 18.0278C3.69451 18.1582 3.71288 18.293 3.71251 18.4307L3.70902 19.3447C3.70884 19.4201 3.73548 19.4631 3.81191 19.4866C3.8977 19.513 3.98662 19.5311 4.08326 19.5549L4.06085 19.7121C3.95098 19.7121 3.84994 19.7114 3.74889 19.7122C3.50197 19.7143 3.25505 19.7155 3.00832 19.7209C2.96533 19.7219 2.95412 19.7119 2.95192 19.6741C2.94475 19.5532 2.94365 19.5533 3.0649 19.5261L3.10569 19.5162C3.22419 19.4859 3.26369 19.4517 3.26461 19.3389C3.26736 19.0149 3.27453 18.69 3.25707 18.3667C3.23888 18.0313 2.95541 17.8527 2.60928 17.9386C2.49629 17.9666 2.39396 18.0156 2.29879 18.079C2.26664 18.1006 2.26058 18.1255 2.26315 18.1632C2.27289 18.3061 2.27895 18.4491 2.28024 18.5922C2.28244 18.8425 2.27913 19.0928 2.28024 19.3434C2.2806 19.4448 2.31753 19.4836 2.42427 19.5071L2.58282 19.5414L2.61222 19.5476C2.61442 19.5953 2.61644 19.6429 2.61405 19.6905C2.61259 19.7203 2.58797 19.7229 2.56041 19.7224C2.40627 19.7188 2.25194 19.714 2.0978 19.7143C1.91023 19.7146 1.72283 19.7196 1.53544 19.7228H1.49135C1.49135 19.6722 1.48877 19.6239 1.49318 19.5758C1.4941 19.5642 1.51578 19.548 1.53066 19.5444L1.71548 19.5076C1.79393 19.4895 1.83141 19.4517 1.83582 19.3768C1.85676 19.03 1.87183 18.6831 1.83711 18.3365C1.83031 18.2692 1.80698 18.2009 1.77721 18.1389C1.6826 17.9426 1.46967 17.8606 1.22403 17.9196C1.10737 17.9476 1.0021 17.9978 0.902525 18.0611C0.855493 18.0911 0.833079 18.1308 0.833079 18.181C0.833079 18.5269 0.834365 18.8729 0.835468 19.2186L0.837489 19.352C0.839693 19.445 0.881765 19.494 0.980055 19.514C1.04325 19.5274 1.10719 19.5366 1.17884 19.549Z" fill="white"/>
<path fill-rule="evenodd" clip-rule="evenodd" d="M12.2861 17.623C12.3146 17.7531 12.314 17.8701 12.2123 17.9588C12.1112 18.0469 11.9833 18.0173 11.8586 17.9976C11.8702 18.0594 11.883 18.1118 11.8893 18.165C11.9347 18.5599 11.7537 18.853 11.3637 19.0205C11.2163 19.0837 11.06 19.1072 10.9003 19.1192C10.8209 19.1251 10.7515 19.182 10.744 19.2433C10.7363 19.3054 10.7778 19.3692 10.8608 19.3879C10.9587 19.4098 11.0609 19.416 11.1614 19.4269C11.3771 19.45 11.5951 19.4605 11.8083 19.4967C12.1305 19.5512 12.3104 19.8154 12.2536 20.1194C12.2031 20.3899 12.0363 20.5868 11.8037 20.7377C11.4118 20.9927 10.9819 21.0673 10.5241 20.9372C10.2623 20.8627 10.0776 20.701 10.0139 20.4394C9.9819 20.3085 10.0159 20.19 10.1208 20.1011C10.2455 19.9959 10.3813 19.902 10.5119 19.8026L10.5542 19.7628L10.5057 19.7309C10.3725 19.6715 10.2659 19.5902 10.2246 19.4491C10.2104 19.4013 10.2251 19.3699 10.2683 19.3454C10.3418 19.3038 10.4149 19.2616 10.4875 19.2186C10.5217 19.1986 10.5555 19.1779 10.5873 19.1548C10.6306 19.1237 10.6268 19.1006 10.5749 19.0827C10.4544 19.0409 10.3473 18.9803 10.2643 18.8872C10.1256 18.7317 10.0863 18.5466 10.0976 18.3511C10.1155 18.0457 10.292 17.8446 10.579 17.7152C10.9202 17.5614 11.2624 17.5518 11.6102 17.6919C11.7388 17.7436 11.8744 17.7547 12.0124 17.7457C12.1154 17.7388 12.2055 17.7022 12.2861 17.623ZM11.0289 19.8109C10.7728 19.8088 10.6925 19.8385 10.5422 19.9822C10.374 20.1434 10.3749 20.3668 10.5428 20.5286C10.6703 20.6513 10.8294 20.7088 11.0063 20.726C11.213 20.746 11.4166 20.7379 11.6043 20.6408C11.8046 20.5367 11.9042 20.3435 11.8591 20.1489C11.8219 19.9883 11.6958 19.9148 11.5424 19.8725C11.3679 19.8245 11.1875 19.8154 11.0289 19.8109ZM10.5259 18.274C10.5353 18.3408 10.5391 18.4084 10.5549 18.4738C10.5959 18.6432 10.6743 18.7921 10.8538 18.8675C11.0646 18.9564 11.3337 18.9182 11.4259 18.6405C11.4891 18.4502 11.4814 18.2612 11.4052 18.0756C11.3712 17.9928 11.3164 17.9227 11.238 17.8713C11.055 17.7514 10.7249 17.7355 10.5904 18.0005C10.5467 18.0866 10.5296 18.1782 10.5259 18.274Z" fill="white"/>
<path fill-rule="evenodd" clip-rule="evenodd" d="M7.94101 17.5804C7.9478 17.6099 7.9614 17.6434 7.96177 17.677C7.96232 17.741 7.95497 17.805 7.95111 17.8691V17.9246L8.0088 17.8832C8.1668 17.7611 8.33655 17.657 8.53424 17.6009C8.89102 17.5 9.24743 17.6834 9.36373 18.0247C9.40782 18.1544 9.42527 18.2878 9.42693 18.4234C9.4306 18.7246 9.43281 19.0259 9.43611 19.3271C9.43722 19.4353 9.45044 19.4546 9.55939 19.4858C9.62112 19.5036 9.68487 19.516 9.74862 19.5254C9.78371 19.5305 9.79878 19.5435 9.79694 19.5757L9.79731 19.6054C9.79602 19.7302 9.78683 19.7358 9.65805 19.7355C9.34977 19.735 9.04167 19.7367 8.73339 19.7391C8.64153 19.7398 8.64134 19.7424 8.63216 19.6572L8.63032 19.6082C8.63602 19.5347 8.63785 19.5354 8.71483 19.5247C8.76664 19.5174 8.81808 19.5062 8.8686 19.4938C8.9206 19.4812 8.94558 19.4451 8.95256 19.3968C8.95606 19.3723 8.96065 19.3478 8.96046 19.3233C8.95605 18.9941 8.96175 18.6646 8.94264 18.3359C8.92721 18.0701 8.71116 17.9117 8.42694 17.9298C8.2875 17.9389 8.16147 17.9826 8.04646 18.058C7.97058 18.1078 7.95534 18.1798 7.9557 18.2573C7.95717 18.565 7.9603 18.8728 7.96379 19.1808C7.96452 19.2483 7.96654 19.3157 7.97334 19.3827C7.98051 19.4558 8.00788 19.4853 8.08431 19.5012C8.15743 19.5164 8.23202 19.5252 8.3101 19.5374L8.31671 19.594C8.31928 19.726 8.30459 19.7358 8.16808 19.7353C7.84933 19.7341 7.53058 19.736 7.21201 19.7393C7.16185 19.74 7.14054 19.7251 7.14183 19.6793L7.14109 19.6596C7.13282 19.5407 7.1365 19.5362 7.25628 19.5169L7.31287 19.5062C7.44257 19.4788 7.47583 19.4463 7.47767 19.3226C7.48373 18.9308 7.48593 18.5392 7.49016 18.1473C7.49071 18.0911 7.46811 18.0475 7.41226 18.0242C7.334 17.9917 7.255 17.9608 7.17581 17.9303C7.13209 17.9134 7.08212 17.9027 7.08046 17.8459C7.07936 17.8059 7.12492 17.7705 7.18721 17.7586C7.31232 17.7348 7.43853 17.715 7.56218 17.6858C7.68527 17.657 7.80616 17.6184 7.94101 17.5804Z" fill="white"/>
<path fill-rule="evenodd" clip-rule="evenodd" d="M14.8332 18.6039C14.8274 18.9698 14.7261 19.2657 14.4506 19.4877C14.1015 19.7695 13.557 19.8652 13.1118 19.6546C12.9218 19.5647 12.7822 19.4268 12.6913 19.2479C12.5518 18.9727 12.5169 18.6834 12.5897 18.387C12.6617 18.0939 12.8507 17.8815 13.1337 17.744C13.4247 17.6027 13.7311 17.5475 14.0543 17.6216C14.4631 17.7153 14.7568 18.0283 14.8152 18.4268C14.8257 18.4967 14.8298 18.5675 14.8332 18.6039ZM14.3598 18.8021L14.344 18.8004C14.344 18.7659 14.346 18.7314 14.3436 18.6969C14.3302 18.4819 14.2788 18.2771 14.1461 18.0971C14.0203 17.9267 13.8489 17.8261 13.6258 17.8114C13.3762 17.7949 13.1664 17.926 13.0927 18.1655C12.9821 18.525 13.0196 18.8754 13.2139 19.2048C13.2986 19.3483 13.4241 19.4543 13.5922 19.51C13.9216 19.6189 14.2137 19.4779 14.2995 19.1611C14.3311 19.0442 14.3403 18.9218 14.3598 18.8021Z" fill="white"/>
<path fill-rule="evenodd" clip-rule="evenodd" d="M6.74112 18.6321C6.73432 18.8947 6.66836 19.1375 6.49567 19.3485C6.31066 19.5745 6.05639 19.6953 5.76722 19.7462C5.42532 19.8062 5.10418 19.7517 4.82952 19.5362C4.69908 19.4337 4.60997 19.3024 4.55118 19.153C4.45473 18.908 4.43066 18.657 4.49 18.4011C4.55339 18.1273 4.718 17.918 4.97319 17.7776C5.26824 17.6156 5.58662 17.5433 5.92669 17.6161C6.36394 17.71 6.61637 17.9776 6.7097 18.3827C6.72844 18.4644 6.73101 18.549 6.74112 18.6321ZM6.26234 18.8054L6.24967 18.8036V18.7543C6.2425 18.5134 6.19235 18.284 6.03931 18.0838C5.92595 17.9353 5.7742 17.8421 5.57964 17.8161C5.26254 17.7736 5.05531 17.9503 4.9866 18.1903C4.89694 18.5038 4.92505 18.8135 5.06376 19.1108C5.15029 19.296 5.28698 19.4405 5.49697 19.5105C5.82436 19.6197 6.12088 19.4751 6.20374 19.1596C6.23424 19.0442 6.24342 18.9237 6.26234 18.8054Z" fill="white"/>
<path fill-rule="evenodd" clip-rule="evenodd" d="M14.3734 5.24545C14.5988 5.85742 14.7609 6.48216 14.8143 7.12949C14.8805 7.9328 14.8503 8.73058 14.6699 9.5206L14.6468 9.58375C14.5902 9.58392 14.5325 9.5772 14.4772 9.5853C14.01 9.65432 13.5434 9.72574 13.0765 9.79683C12.5939 9.87033 12.1109 9.94089 11.6292 10.0192C11.4585 10.0468 11.2472 10.0139 11.1783 10.2354L11.1453 10.2459L11.1686 8.92123L11.1449 5.72492L11.3698 5.68869C11.7374 5.63227 12.105 5.57482 12.4732 5.51978C12.9123 5.45439 13.3517 5.39055 13.7912 5.32672C13.9852 5.29877 14.1794 5.27271 14.3734 5.24545Z" fill="#439934"/>
<path fill-rule="evenodd" clip-rule="evenodd" d="M10.6812 14.1079C10.444 13.9164 10.1985 13.7333 9.97129 13.5318C8.74808 12.4483 7.85318 11.1728 7.41244 9.63502C7.291 9.21197 7.21017 8.78185 7.18408 8.34466C7.16571 8.03859 7.13943 7.72993 7.16258 7.42541C7.22376 6.61572 7.34851 5.8138 7.6013 5.03379L7.61527 5.01567C7.63989 5.04638 7.67516 5.07364 7.68765 5.10832C7.93457 5.79085 8.17947 6.47408 8.42327 7.15782C9.18919 9.306 9.9542 11.4547 10.7214 13.6025C10.7365 13.6445 10.7752 13.6788 10.8032 13.7166L10.6812 14.1079Z" fill="#45A538"/>
<path fill-rule="evenodd" clip-rule="evenodd" d="M14.3733 5.24547C14.1792 5.27256 13.985 5.29878 13.7911 5.32673C13.3517 5.39057 12.9122 5.4544 12.4731 5.51979C12.1051 5.57466 11.7375 5.63211 11.3697 5.6887L11.1448 5.72493L11.143 5.58725C11.1355 5.47407 11.123 5.36089 11.1213 5.24771L11.0962 3.08176C11.0903 2.6299 11.0815 2.17804 11.0717 1.72635C11.0657 1.44564 11.0592 1.16476 11.0458 0.884398C11.0385 0.733778 11.0126 0.583848 11.0023 0.433229C10.9962 0.346618 11.0043 0.259317 11.0063 0.172361C11.121 0.380952 11.2332 0.591095 11.351 0.798132C11.5371 1.12542 11.8338 1.36662 12.1011 1.62973C13.1568 2.67027 13.9061 3.87937 14.3733 5.24547Z" fill="#46A037"/>
<path fill-rule="evenodd" clip-rule="evenodd" d="M11.1454 10.246L11.1785 10.2354C11.2474 10.0139 11.4587 10.0469 11.6293 10.0192C12.111 9.94092 12.594 9.87035 13.0767 9.79685C13.5435 9.72594 14.0102 9.65452 14.4774 9.58533C14.5327 9.57722 14.5903 9.58395 14.6469 9.58378C14.5597 9.87639 14.4909 10.1754 14.3802 10.4599C14.2543 10.7825 14.1022 11.0976 13.9407 11.4064C13.6993 11.8679 13.3986 12.2986 13.0491 12.6931C12.7798 12.9971 12.4796 13.2785 12.1788 13.5561C12.0124 13.7095 11.8165 13.8346 11.6339 13.9726L11.5865 13.9423L11.4162 13.8056L11.24 13.4426C11.1186 13.0178 11.055 12.5855 11.0444 12.1459L11.0477 12.072L11.0717 11.7522C11.0796 11.6429 11.0903 11.5339 11.0953 11.4247C11.1129 11.032 11.1287 10.639 11.1454 10.246Z" fill="#409433"/>
<path fill-rule="evenodd" clip-rule="evenodd" d="M11.1455 10.246C11.1289 10.639 11.1131 11.0322 11.0953 11.4252C11.0903 11.5346 11.0799 11.6436 11.0718 11.7527L10.9645 11.7908C10.726 11.1316 10.4874 10.4792 10.254 9.82533C9.86805 8.74339 9.48684 7.65989 9.10139 6.5776C8.79036 5.70425 8.47656 4.83141 8.16112 3.95927C8.14624 3.91855 8.10398 3.88646 8.07458 3.8504L8.7617 2.6639C8.7854 2.70238 8.81644 2.73844 8.83132 2.77984C9.14916 3.6632 9.46644 4.54674 9.78097 5.43113C10.1903 6.58191 10.5969 7.73321 11.0058 8.88417C11.0222 8.93006 11.049 8.97251 11.0747 9.02409L11.1688 8.92126C11.1609 9.36294 11.1532 9.80428 11.1455 10.246Z" fill="#4FAA41"/>
<path fill-rule="evenodd" clip-rule="evenodd" d="M8.07441 3.85038C8.10399 3.88644 8.14625 3.91853 8.16094 3.95925C8.47639 4.83139 8.79018 5.70405 9.10122 6.57758C9.48666 7.65987 9.86788 8.74336 10.2539 9.82531C10.4872 10.4792 10.7258 11.1314 10.9643 11.7908L11.0716 11.7527L11.0475 12.0725L11.0257 12.1462C10.9884 12.4963 10.957 12.847 10.9114 13.1964C10.8886 13.3715 10.8399 13.5434 10.803 13.7166C10.7753 13.6788 10.7363 13.6445 10.7213 13.6025C9.95386 11.4547 9.18904 9.30599 8.42311 7.1578C8.17931 6.47406 7.93423 5.79084 7.6875 5.1083C7.67501 5.07362 7.63973 5.04636 7.61511 5.01565L8.07441 3.85038Z" fill="#4AA73C"/>
<path fill-rule="evenodd" clip-rule="evenodd" d="M11.1686 8.92126L11.0745 9.02409C11.0488 8.97251 11.022 8.93006 11.0056 8.88417C10.5966 7.73321 10.1901 6.58191 9.78075 5.43113C9.46622 4.54674 9.14894 3.6632 8.8311 2.77984C8.81622 2.73844 8.78517 2.70238 8.76147 2.6639L9.61118 1.61422C9.638 1.64769 9.67621 1.67754 9.68999 1.71532C9.92589 2.36404 10.1596 3.01328 10.3922 3.66303C10.6093 4.26999 10.8232 4.87765 11.0429 5.48358C11.0576 5.52412 11.1089 5.55277 11.143 5.58727L11.1449 5.72495L11.1686 8.92126Z" fill="#57AE47"/>
<path fill-rule="evenodd" clip-rule="evenodd" d="M11.1431 5.58725C11.1087 5.55292 11.0576 5.52428 11.0429 5.48356C10.8234 4.87763 10.6094 4.26997 10.3922 3.66301C10.1596 3.01326 9.92592 2.36402 9.69002 1.71531C9.67624 1.67752 9.63803 1.64767 9.61121 1.6142C9.88752 1.36006 10.1552 1.09678 10.4427 0.854375C10.6983 0.639056 10.9037 0.408209 10.9132 0.0678047L10.9334 0L11.0062 0.172186C11.0043 0.259142 10.9961 0.346443 11.0021 0.433053C11.0126 0.583673 11.0385 0.733603 11.0457 0.884223C11.0591 1.16459 11.0655 1.44547 11.0716 1.72617C11.0813 2.17786 11.0901 2.62972 11.096 3.08158L11.1212 5.24754C11.123 5.36089 11.1357 5.47407 11.1431 5.58725Z" fill="#60B24F"/>
<path fill-rule="evenodd" clip-rule="evenodd" d="M10.8031 13.7164C10.8401 13.5432 10.8888 13.3713 10.9115 13.1962C10.9571 12.847 10.9885 12.4961 11.0258 12.146L11.0352 12.1446L11.0444 12.1462C11.055 12.5858 11.1186 13.0182 11.24 13.4429C11.2152 13.4736 11.1805 13.5007 11.1673 13.5352C11.0653 13.8054 10.969 14.0779 10.8665 14.3479C10.8526 14.3848 10.8132 14.4136 10.7859 14.4459L10.681 14.1077L10.8031 13.7164Z" fill="#A9AA88"/>
<path fill-rule="evenodd" clip-rule="evenodd" d="M10.7859 14.446C10.8133 14.4136 10.8526 14.385 10.8665 14.348C10.9691 14.078 11.0653 13.8056 11.1673 13.5354C11.1803 13.5009 11.2152 13.4738 11.24 13.4431L11.4162 13.8061C11.3815 13.8524 11.3334 13.8943 11.3141 13.9459L10.9768 14.8762C10.9628 14.9136 10.9156 14.9398 10.8836 14.9714L10.7859 14.446Z" fill="#B6B598"/>
<path fill-rule="evenodd" clip-rule="evenodd" d="M10.8836 14.9712C10.9154 14.9396 10.9628 14.9134 10.9768 14.876L11.3141 13.9457C11.3332 13.8941 11.3815 13.8522 11.4162 13.8059L11.5867 13.9424C11.5044 14.0188 11.4586 14.1072 11.4862 14.2188L11.4344 14.378C11.4109 14.4053 11.3767 14.4291 11.3651 14.4603C11.2474 14.7771 11.1351 15.0956 11.0164 15.4122C11.0014 15.4522 10.9597 15.4838 10.9305 15.5193L10.8836 14.9712Z" fill="#C2C1A7"/>
<path fill-rule="evenodd" clip-rule="evenodd" d="M10.9303 15.5192C10.9597 15.4836 11.0014 15.4521 11.0163 15.412C11.135 15.0954 11.2474 14.7769 11.365 14.4602C11.3766 14.429 11.4107 14.4053 11.4343 14.3779L11.3628 15.1087C11.3437 15.1294 11.3161 15.1475 11.3069 15.1715L11.0692 15.8113C11.0525 15.8549 11.0205 15.8939 10.9955 15.9348C10.9733 15.9075 10.9336 15.8811 10.9318 15.8529C10.9248 15.7421 10.9298 15.6305 10.9303 15.5192Z" fill="#CECDB7"/>
<path fill-rule="evenodd" clip-rule="evenodd" d="M10.9957 15.935C11.0207 15.8941 11.0527 15.8551 11.0694 15.8115L11.3071 15.1717C11.3163 15.1476 11.3441 15.1296 11.363 15.1089L11.3648 15.5886L11.1938 16.0004L10.9957 15.935Z" fill="#DBDAC7"/>
<path fill-rule="evenodd" clip-rule="evenodd" d="M11.1937 16.0004L11.3648 15.5885L11.4 16.0758L11.1937 16.0004Z" fill="#EBE9DC"/>
<path fill-rule="evenodd" clip-rule="evenodd" d="M11.4861 14.2188C11.4587 14.1073 11.5042 14.019 11.5865 13.9424L11.6339 13.9728L11.4861 14.2188Z" fill="#CECDB7"/>
<path fill-rule="evenodd" clip-rule="evenodd" d="M11.0432 12.1464L11.0346 12.1448L11.0258 12.1462L11.0463 12.0725L11.0432 12.1464Z" fill="#4FAA41"/>
</svg>
