<svg width="25" height="25" viewBox="0 0 25 25" fill="none" xmlns="http://www.w3.org/2000/svg">
<path d="M7.91602 15.1992V9.91015H8.20313V10.7422C8.23704 10.7053 8.26836 10.6662 8.29688 10.625C8.41419 10.3815 8.5985 10.1764 8.8282 10.0339C9.05789 9.89138 9.32345 9.81729 9.59375 9.82031C10.248 9.80078 10.7793 10.043 11.0918 10.625C11.2906 10.9866 11.4001 11.3905 11.4109 11.803C11.4218 12.2154 11.3338 12.6246 11.1543 12.9961C10.8633 13.6484 10.1445 13.9727 9.375 13.8535C9.13553 13.8331 8.90498 13.7531 8.70437 13.6207C8.50377 13.4883 8.33951 13.3078 8.22656 13.0957V15.1992H7.91602ZM8.20313 11.7812C8.22852 12.0391 8.23828 12.2227 8.26758 12.4023C8.38086 13.1094 8.79883 13.5293 9.45508 13.6055C9.76322 13.6561 10.0794 13.5983 10.3497 13.442C10.62 13.2856 10.8278 13.0404 10.9375 12.748C11.0636 12.4473 11.1243 12.1232 11.1155 11.7973C11.1068 11.4713 11.0288 11.1509 10.8867 10.8574C10.7696 10.5954 10.5703 10.3786 10.3191 10.2398C10.0679 10.1009 9.77833 10.0476 9.49414 10.0879C9.22732 10.1072 8.97315 10.2092 8.76698 10.3797C8.56081 10.5501 8.41287 10.7806 8.34375 11.0391C8.28258 11.2835 8.23563 11.5313 8.20313 11.7812Z" fill="white"/>
<path d="M17.2676 12.5C17.2241 12.8724 17.0468 13.2163 16.7688 13.4678C16.4907 13.7193 16.1307 13.8612 15.7559 13.8672C14.5527 13.9277 13.9883 13.1289 13.8985 12.207C13.8361 11.7064 13.9174 11.1984 14.1328 10.7422C14.2829 10.4293 14.5286 10.1722 14.8344 10.0082C15.1403 9.84427 15.4903 9.78187 15.834 9.83008C16.1607 9.85777 16.4704 9.98754 16.7193 10.201C16.9682 10.4145 17.1436 10.7008 17.2207 11.0195C17.2818 11.3098 17.3268 11.6032 17.3555 11.8984H14.1934C14.1348 12.7344 14.584 13.4062 15.2207 13.5684C16.0137 13.7637 16.6914 13.4199 16.9375 12.666C16.9922 12.4727 17.0918 12.4453 17.2676 12.5ZM14.1934 11.6309H17.0195C17.002 10.7402 16.4473 10.0957 15.6953 10.0859C14.8438 10.0723 14.2305 10.6934 14.1934 11.6309Z" fill="white"/>
<path d="M17.8496 12.5195H18.1269C18.1372 12.7236 18.2035 12.9209 18.3186 13.0897C18.4337 13.2586 18.5931 13.3924 18.7793 13.4766C19.0131 13.5818 19.2676 13.6329 19.524 13.6262C19.7803 13.6194 20.0318 13.5549 20.2597 13.4375C20.384 13.3815 20.488 13.2887 20.5579 13.1717C20.6277 13.0547 20.66 12.9191 20.6504 12.7832C20.6575 12.6521 20.6217 12.5223 20.5484 12.4133C20.4751 12.3044 20.3683 12.2224 20.2441 12.1797C19.9394 12.0664 19.6152 12.0039 19.3047 11.9043C18.9815 11.8123 18.6656 11.6967 18.3593 11.5586C17.8593 11.3145 17.8281 10.3633 18.3945 10.0625C18.6845 9.89883 19.0109 9.81041 19.3439 9.80529C19.6769 9.80017 20.0058 9.87853 20.3008 10.0332C20.4794 10.1319 20.6237 10.2828 20.7144 10.4656C20.8052 10.6485 20.838 10.8547 20.8086 11.0566H20.5703C20.5703 11.0449 20.5488 11.0352 20.5488 11.0234C20.5195 10.2637 19.8828 10.0293 19.1992 10.0957C18.9951 10.1209 18.7969 10.181 18.6133 10.2734C18.5029 10.3239 18.411 10.4074 18.3501 10.5123C18.2892 10.6173 18.2624 10.7385 18.2734 10.8594C18.2737 10.9803 18.3115 11.0981 18.3814 11.1967C18.4513 11.2953 18.5501 11.3699 18.664 11.4102C18.9648 11.5195 19.2793 11.5898 19.5879 11.6758C19.8359 11.7441 20.0937 11.7891 20.334 11.8711C20.5035 11.9267 20.6522 12.0324 20.7603 12.1744C20.8684 12.3163 20.9309 12.4878 20.9394 12.666C20.9684 12.8613 20.9351 13.0608 20.8443 13.2361C20.7535 13.4114 20.6098 13.5536 20.4336 13.6426C19.7812 14.0117 18.707 13.9141 18.2285 13.4473C18.1072 13.3253 18.0113 13.1805 17.9463 13.0213C17.8812 12.8621 17.8484 12.6915 17.8496 12.5195Z" fill="white"/>
<path d="M24.4551 11.0566H24.1953C24.1953 11.0215 24.1816 10.9902 24.1777 10.9609C24.1735 10.7662 24.1025 10.5789 23.9767 10.4302C23.8508 10.2816 23.6777 10.1808 23.4863 10.1445C23.1253 10.0409 22.7401 10.0595 22.3906 10.1973C22.2525 10.2369 22.1309 10.3201 22.0439 10.4345C21.957 10.5489 21.9094 10.6883 21.9082 10.832C21.9033 10.9731 21.9473 11.1116 22.0327 11.2241C22.1181 11.3365 22.2397 11.416 22.377 11.4492C22.7676 11.5703 23.168 11.6445 23.5645 11.7539C23.6929 11.7847 23.8195 11.8232 23.9434 11.8691C24.1284 11.9353 24.2891 12.0558 24.4046 12.2148C24.52 12.3738 24.5848 12.5639 24.5905 12.7603C24.5962 12.9567 24.5425 13.1503 24.4365 13.3157C24.3304 13.4811 24.177 13.6107 23.9961 13.6875C23.7205 13.8127 23.4217 13.8789 23.119 13.8819C22.8163 13.8849 22.5164 13.8247 22.2383 13.7051C22.0096 13.6065 21.8166 13.4401 21.6853 13.2285C21.554 13.0169 21.4907 12.7702 21.5039 12.5215H21.6133H21.7578C21.8048 12.7481 21.9063 12.9599 22.0535 13.1384C22.2008 13.317 22.3893 13.4569 22.6029 13.5462C22.8164 13.6354 23.0485 13.6713 23.279 13.6507C23.5095 13.63 23.7315 13.5535 23.9258 13.4277C24.0441 13.3663 24.1424 13.2721 24.2088 13.1565C24.2753 13.0409 24.3072 12.9086 24.3008 12.7754C24.3067 12.6442 24.2696 12.5147 24.1952 12.4065C24.1209 12.2983 24.0132 12.2173 23.8887 12.1758C23.584 12.0625 23.2598 12.002 22.9492 11.9023C22.6243 11.8118 22.3063 11.6975 21.998 11.5605C21.5098 11.3203 21.4707 10.377 22.0273 10.0762C22.321 9.90565 22.6537 9.81405 22.9933 9.81029C23.3328 9.80652 23.6675 9.89072 23.9648 10.0547C24.1349 10.1562 24.2718 10.305 24.3588 10.4828C24.4458 10.6607 24.4793 10.8601 24.4551 11.0566Z" fill="white"/>
<path d="M7.44141 13.7715C7.33915 13.8102 7.22624 13.8101 7.12404 13.7713C7.02184 13.7324 6.93741 13.6574 6.88672 13.5605C6.56836 13.084 6.2168 12.6289 5.87891 12.1641L5.73242 11.9687C5.33008 12.5078 4.92773 13.0254 4.56055 13.5625C4.51271 13.6551 4.43284 13.7271 4.33583 13.7652C4.23881 13.8033 4.13126 13.8048 4.0332 13.7695L5.54297 11.7441L4.13867 9.91406C4.23976 9.87756 4.35034 9.87706 4.45175 9.91264C4.55317 9.94823 4.63919 10.0177 4.69531 10.1094C5.02148 10.5859 5.38281 11.041 5.74219 11.5234C6.10352 11.0449 6.46094 10.5879 6.79492 10.1152C6.84303 10.0241 6.92293 9.95391 7.01945 9.9179C7.11596 9.88188 7.22234 9.8826 7.31836 9.91992L6.77344 10.6426C6.5293 10.9648 6.28906 11.2891 6.03516 11.6035C6.0147 11.6218 5.99833 11.6443 5.98713 11.6693C5.97592 11.6944 5.97013 11.7216 5.97013 11.749C5.97013 11.7765 5.97592 11.8036 5.98713 11.8287C5.99833 11.8538 6.0147 11.8762 6.03516 11.8945C6.50195 12.5137 6.96484 13.1348 7.44141 13.7715Z" fill="white"/>
<path d="M13.8516 9.89453V10.168C13.654 10.155 13.456 10.1836 13.2702 10.2519C13.0844 10.3203 12.9149 10.4268 12.7729 10.5646C12.6308 10.7025 12.5192 10.8686 12.4453 11.0523C12.3714 11.2359 12.3368 11.433 12.3438 11.6309C12.3438 12.2741 12.3438 12.9173 12.3438 13.5605V13.7793H12.0645V9.91016H12.3379V10.7031C12.6758 10.125 13.1973 9.91016 13.8516 9.89453Z" fill="white"/>
<path d="M0.416016 11.7187C0.457031 11.5234 0.482422 11.3105 0.539062 11.1113C0.876953 9.91016 2.25391 9.41016 3.20117 10.1543C3.75586 10.5898 3.89453 11.207 3.86719 11.9023H0.742187C0.691406 13.1445 1.58789 13.8945 2.73437 13.5117C2.92035 13.4452 3.08683 13.3334 3.2188 13.1864C3.35076 13.0395 3.44404 12.862 3.49023 12.6699C3.55078 12.4746 3.64844 12.4414 3.83398 12.498C3.80342 12.7358 3.71935 12.9636 3.58809 13.1642C3.45684 13.3648 3.28181 13.533 3.07617 13.6562C2.73641 13.842 2.34659 13.9157 1.96247 13.8665C1.57835 13.8174 1.21959 13.6481 0.9375 13.3828C0.658429 13.069 0.489688 12.6726 0.457031 12.2539C0.457031 12.1875 0.431641 12.1211 0.417969 12.0586C0.416667 11.9427 0.416016 11.8294 0.416016 11.7187ZM0.746094 11.6348H3.57227C3.55469 10.7344 2.98633 10.0957 2.22852 10.0898C1.38477 10.0781 0.78125 10.7031 0.744141 11.6309L0.746094 11.6348Z" fill="white"/>
</svg>
