<svg width="27" height="27" viewBox="0 0 27 27" fill="none" xmlns="http://www.w3.org/2000/svg">
<path d="M25.0082 0.000102245H1.9918C1.46958 -0.00521247 0.966571 0.196857 0.593157 0.56197C0.219742 0.927084 0.00642052 1.42542 0 1.94763V25.0568C0.00758165 25.5782 0.221414 26.0754 0.594702 26.4396C0.96799 26.8038 1.47033 27.0052 1.9918 26.9999H25.0082C25.5305 27.004 26.0331 26.8013 26.4063 26.4359C26.7796 26.0706 26.993 25.5724 27 25.0502V1.94099C26.9907 1.42031 26.7762 0.924351 26.4033 0.560914C26.0303 0.197476 25.5289 -0.00406317 25.0082 0.000102245Z" fill="#0076B2"/>
<path d="M4.56771 10.6671H8.57566V23.5629H4.56771V10.6671ZM6.57279 4.24915C7.03249 4.24915 7.48185 4.38549 7.86404 4.64092C8.24623 4.89636 8.54407 5.25941 8.71989 5.68415C8.89571 6.10889 8.94159 6.57623 8.85175 7.02705C8.76191 7.47788 8.54037 7.89193 8.21516 8.21682C7.88996 8.54172 7.47569 8.76286 7.02478 8.85227C6.57387 8.94168 6.10657 8.89535 5.68199 8.71913C5.25742 8.54291 4.89465 8.24473 4.63957 7.8623C4.3845 7.47987 4.24859 7.03037 4.24902 6.57069C4.24961 5.95477 4.49469 5.36428 4.93042 4.92897C5.36615 4.49366 5.95688 4.24915 6.57279 4.24915Z" fill="white"/>
<path d="M11.0898 10.6671H14.9318V12.4376H14.9849C15.5205 11.424 16.8262 10.3551 18.776 10.3551C22.8348 10.3462 23.5873 13.0174 23.5873 16.4809V23.5629H19.5794V17.2887C19.5794 15.7949 19.5528 13.8717 17.4968 13.8717C15.4408 13.8717 15.0912 15.5005 15.0912 17.1913V23.5629H11.0898V10.6671Z" fill="white"/>
</svg>
