<svg width="25" height="15" viewBox="0 0 25 15" fill="none" xmlns="http://www.w3.org/2000/svg">
<g clip-path="url(#clip0_24_155)">
<path d="M12.3589 14.9567C12.2743 14.9567 12.1953 14.9347 12.1219 14.896L11.3713 14.4598C11.2585 14.3991 11.3149 14.377 11.3488 14.366C11.5011 14.3163 11.5293 14.3052 11.6874 14.2169C11.7043 14.2059 11.7269 14.2114 11.7438 14.2224L12.3194 14.5592C12.342 14.5703 12.3702 14.5703 12.3871 14.5592L14.6388 13.2838C14.6614 13.2728 14.6727 13.2507 14.6727 13.2231V10.6779C14.6727 10.6503 14.6614 10.6282 14.6388 10.6171L12.3871 9.34727C12.3646 9.33623 12.3363 9.33623 12.3194 9.34727L10.0677 10.6171C10.0451 10.6282 10.0339 10.6558 10.0339 10.6779V13.2231C10.0339 13.2452 10.0451 13.2728 10.0677 13.2838L10.6828 13.6317C11.0158 13.7973 11.2246 13.6041 11.2246 13.4108V10.8987C11.2246 10.8656 11.2528 10.8325 11.2923 10.8325H11.5801C11.614 10.8325 11.6479 10.8601 11.6479 10.8987V13.4108C11.6479 13.847 11.4052 14.101 10.9819 14.101C10.8521 14.101 10.7506 14.101 10.4628 13.9629L9.8702 13.6317C9.72347 13.5488 9.63318 13.3943 9.63318 13.2286V10.6834C9.63318 10.5177 9.72347 10.3632 9.8702 10.2803L12.1219 9.00496C12.263 8.92766 12.4548 8.92766 12.5959 9.00496L14.8476 10.2803C14.9944 10.3632 15.0846 10.5177 15.0846 10.6834V13.2286C15.0846 13.3943 14.9944 13.5488 14.8476 13.6317L12.5959 14.907C12.5226 14.9402 12.4379 14.9567 12.3589 14.9567ZM13.053 13.2065C12.0655 13.2065 11.8623 12.7648 11.8623 12.3894C11.8623 12.3563 11.8905 12.3232 11.93 12.3232H12.2235C12.2573 12.3232 12.2855 12.3452 12.2855 12.3784C12.3307 12.671 12.4605 12.8145 13.0587 12.8145C13.5327 12.8145 13.7359 12.7096 13.7359 12.4612C13.7359 12.3176 13.6795 12.2127 12.9402 12.141C12.3251 12.0802 11.9413 11.9477 11.9413 11.4674C11.9413 11.0202 12.3251 10.7552 12.9684 10.7552C13.6907 10.7552 14.0463 10.9981 14.0914 11.5281C14.0914 11.5447 14.0858 11.5612 14.0745 11.5778C14.0632 11.5888 14.0463 11.5999 14.0293 11.5999H13.7359C13.7077 11.5999 13.6795 11.5778 13.6738 11.5502C13.6061 11.2465 13.4311 11.1472 12.9684 11.1472C12.4492 11.1472 12.3871 11.3238 12.3871 11.4563C12.3871 11.6165 12.4605 11.6661 13.1603 11.7545C13.8544 11.8428 14.1817 11.9698 14.1817 12.4446C14.1761 12.9305 13.7697 13.2065 13.053 13.2065Z" fill="#539E43"/>
<path d="M5.37271 5.00214C5.37271 4.90276 5.31628 4.8089 5.22598 4.75921L2.83321 3.41206C2.7937 3.38997 2.74856 3.37893 2.70341 3.37341H2.68084C2.63569 3.37341 2.59054 3.38997 2.55104 3.41206L0.158263 4.75921C0.0679691 4.8089 0.0115356 4.90276 0.0115356 5.00214L0.017179 8.624C0.017179 8.67369 0.0453957 8.72338 0.0905424 8.74547C0.135689 8.77307 0.192123 8.77307 0.231626 8.74547L1.65375 7.95043C1.74404 7.90073 1.80047 7.80688 1.80047 7.7075V6.01251C1.80047 5.91313 1.85691 5.81927 1.9472 5.76958L2.55104 5.42727C2.59619 5.39966 2.64698 5.38862 2.69777 5.38862C2.74856 5.38862 2.79935 5.39966 2.83885 5.42727L3.44269 5.76958C3.53298 5.81927 3.58941 5.91313 3.58941 6.01251V7.7075C3.58941 7.80688 3.64585 7.90073 3.73614 7.95043L5.15826 8.74547C5.20341 8.77307 5.25984 8.77307 5.30499 8.74547C5.35014 8.72338 5.37835 8.67369 5.37835 8.624L5.37271 5.00214Z" fill="white"/>
<path d="M16.8736 0.0165634C16.8284 -0.00552113 16.772 -0.00552113 16.7325 0.0165634C16.6873 0.044169 16.6591 0.0883381 16.6591 0.138028V3.72676C16.6591 3.75989 16.6422 3.79302 16.6083 3.8151C16.5745 3.83166 16.5406 3.83166 16.5067 3.8151L15.9086 3.47831C15.8183 3.42862 15.711 3.42862 15.6207 3.47831L13.228 4.83099C13.1377 4.88068 13.0812 4.97454 13.0812 5.07392V7.77375C13.0812 7.87313 13.1377 7.96699 13.228 8.01668L15.6207 9.36935C15.711 9.41904 15.8183 9.41904 15.9086 9.36935L18.3013 8.01668C18.3916 7.96699 18.4481 7.87313 18.4481 7.77375V1.04349C18.4481 0.938592 18.3916 0.844733 18.3013 0.795042L16.8736 0.0165634ZM16.6535 6.88485C16.6535 6.91245 16.6422 6.93454 16.6196 6.94558L15.8013 7.40935C15.7788 7.4204 15.7505 7.4204 15.728 7.40935L14.9097 6.94558C14.8871 6.93454 14.8758 6.90693 14.8758 6.88485V5.9573C14.8758 5.92969 14.8871 5.90761 14.9097 5.89656L15.728 5.43279C15.7505 5.42175 15.7788 5.42175 15.8013 5.43279L16.6196 5.89656C16.6422 5.90761 16.6535 5.93521 16.6535 5.9573V6.88485Z" fill="white"/>
<path d="M24.8363 5.93522C24.9266 5.88553 24.9774 5.79167 24.9774 5.69229V5.03527C24.9774 4.93589 24.921 4.84203 24.8363 4.79234L22.4605 3.44519C22.3702 3.3955 22.263 3.3955 22.1727 3.44519L19.7799 4.79786C19.6896 4.84756 19.6332 4.94141 19.6332 5.04079V7.74063C19.6332 7.84001 19.6896 7.93387 19.7799 7.98356L22.1558 9.30863C22.246 9.35832 22.3533 9.35832 22.4379 9.30863L23.877 8.52463C23.9221 8.50254 23.9503 8.45285 23.9503 8.40316C23.9503 8.35347 23.9221 8.30378 23.877 8.2817L21.4729 6.92902C21.4278 6.90141 21.3995 6.85725 21.3995 6.80756V5.96282C21.3995 5.91313 21.4278 5.86344 21.4729 5.84136L22.2235 5.42175C22.2686 5.39415 22.3251 5.39415 22.3702 5.42175L23.1208 5.84136C23.1659 5.86896 23.1941 5.91313 23.1941 5.96282V6.62536C23.1941 6.67505 23.2223 6.72474 23.2675 6.74682C23.3126 6.77443 23.3691 6.77443 23.4142 6.74682L24.8363 5.93522Z" fill="white"/>
<path d="M22.2799 5.80823C22.2968 5.79719 22.3194 5.79719 22.3363 5.80823L22.7934 6.06772C22.8104 6.07876 22.8216 6.09533 22.8216 6.11741V6.6364C22.8216 6.65848 22.8104 6.67504 22.7934 6.68609L22.3363 6.94558C22.3194 6.95662 22.2968 6.95662 22.2799 6.94558L21.8228 6.68609C21.8058 6.67504 21.7946 6.65848 21.7946 6.6364V6.11741C21.7946 6.09533 21.8058 6.07876 21.8228 6.06772L22.2799 5.80823Z" fill="#539E43"/>
<path d="M9.37359 3.45622C9.28329 3.40653 9.17607 3.40653 9.08578 3.45622L6.70993 4.79786C6.61964 4.84755 6.56885 4.94141 6.56885 5.04079V7.72958C6.56885 7.82896 6.62528 7.92282 6.70993 7.97251L9.08578 9.31414C9.17607 9.36383 9.28329 9.36383 9.37359 9.31414L11.7494 7.97251C11.8397 7.92282 11.8905 7.82896 11.8905 7.72958V5.04079C11.8905 4.94141 11.8341 4.84755 11.7494 4.79786L9.37359 3.45622Z" fill="url(#paint0_linear_24_155)"/>
<mask id="mask0_24_155" style="mask-type:luminance" maskUnits="userSpaceOnUse" x="6" y="3" width="6" height="7">
<path d="M9.37359 3.45622C9.28329 3.40653 9.17607 3.40653 9.08578 3.45622L6.70993 4.79786C6.61964 4.84755 6.56885 4.94141 6.56885 5.04079V7.72958C6.56885 7.82896 6.62528 7.92282 6.70993 7.97251L9.08578 9.31414C9.17607 9.36383 9.28329 9.36383 9.37359 9.31414L11.7494 7.97251C11.8397 7.92282 11.8905 7.82896 11.8905 7.72958V5.04079C11.8905 4.94141 11.8341 4.84755 11.7494 4.79786L9.37359 3.45622Z" fill="white"/>
</mask>
<g mask="url(#mask0_24_155)">
<path d="M11.7551 4.79786L9.36794 3.45623C9.34536 3.44518 9.31715 3.43414 9.29457 3.42862L6.61963 7.91178C6.6422 7.93938 6.67042 7.96147 6.69864 7.97803L9.08577 9.31966C9.15349 9.35831 9.2325 9.36935 9.30586 9.34727L11.8171 4.85307C11.8002 4.83099 11.7776 4.81442 11.7551 4.79786Z" fill="url(#paint1_linear_24_155)"/>
</g>
<mask id="mask1_24_155" style="mask-type:luminance" maskUnits="userSpaceOnUse" x="6" y="3" width="6" height="7">
<path d="M9.37359 3.45622C9.28329 3.40653 9.17607 3.40653 9.08578 3.45622L6.70993 4.79786C6.61964 4.84755 6.56885 4.94141 6.56885 5.04079V7.72958C6.56885 7.82896 6.62528 7.92282 6.70993 7.97251L9.08578 9.31414C9.17607 9.36383 9.28329 9.36383 9.37359 9.31414L11.7494 7.97251C11.8397 7.92282 11.8905 7.82896 11.8905 7.72958V5.04079C11.8905 4.94141 11.8341 4.84755 11.7494 4.79786L9.37359 3.45622Z" fill="white"/>
</mask>
<g mask="url(#mask1_24_155)">
<path fill-rule="evenodd" clip-rule="evenodd" d="M11.7608 7.97251C11.8285 7.93386 11.8793 7.8676 11.9018 7.79583L9.28332 3.4231C9.2156 3.41205 9.14224 3.41757 9.08016 3.45622L6.70996 4.79234L9.26639 9.35279C9.30025 9.34727 9.33976 9.33622 9.37362 9.31966L11.7608 7.97251Z" fill="url(#paint2_linear_24_155)"/>
<path fill-rule="evenodd" clip-rule="evenodd" d="M11.7607 7.97251L9.37926 9.31414C9.3454 9.3307 9.31154 9.34175 9.27203 9.34727L9.31718 9.43009L11.9583 7.93386V7.90073L11.8905 7.79031C11.8793 7.86761 11.8285 7.93386 11.7607 7.97251Z" fill="url(#paint3_linear_24_155)"/>
<path fill-rule="evenodd" clip-rule="evenodd" d="M11.7607 7.97251L9.37926 9.31414C9.3454 9.3307 9.31154 9.34175 9.27203 9.34727L9.31718 9.43009L11.9583 7.93386V7.90073L11.8905 7.79031C11.8793 7.86761 11.8285 7.93386 11.7607 7.97251Z" fill="url(#paint4_linear_24_155)"/>
</g>
</g>
<defs>
<linearGradient id="paint0_linear_24_155" x1="369.445" y1="107.159" x2="117.06" y2="512.492" gradientUnits="userSpaceOnUse">
<stop stop-color="#41873F"/>
<stop offset="0.3288" stop-color="#418B3D"/>
<stop offset="0.6352" stop-color="#419637"/>
<stop offset="0.9319" stop-color="#3FA92D"/>
<stop offset="1" stop-color="#3FAE2A"/>
</linearGradient>
<linearGradient id="paint1_linear_24_155" x1="231.55" y1="330.574" x2="877.158" y2="-27.9474" gradientUnits="userSpaceOnUse">
<stop offset="0.1376" stop-color="#41873F"/>
<stop offset="0.4032" stop-color="#54A044"/>
<stop offset="0.7136" stop-color="#66B848"/>
<stop offset="0.9081" stop-color="#6CC04A"/>
</linearGradient>
<linearGradient id="paint2_linear_24_155" x1="-16.0762" y1="300.137" x2="533.681" y2="300.137" gradientUnits="userSpaceOnUse">
<stop offset="0.0919165" stop-color="#6CC04A"/>
<stop offset="0.2864" stop-color="#66B848"/>
<stop offset="0.5968" stop-color="#54A044"/>
<stop offset="0.8624" stop-color="#41873F"/>
</linearGradient>
<linearGradient id="paint3_linear_24_155" x1="-269.722" y1="90.2307" x2="280.036" y2="90.2307" gradientUnits="userSpaceOnUse">
<stop offset="0.0919165" stop-color="#6CC04A"/>
<stop offset="0.2864" stop-color="#66B848"/>
<stop offset="0.5968" stop-color="#54A044"/>
<stop offset="0.8624" stop-color="#41873F"/>
</linearGradient>
<linearGradient id="paint4_linear_24_155" x1="360.129" y1="-338.316" x2="226.62" y2="376.755" gradientUnits="userSpaceOnUse">
<stop stop-color="#41873F"/>
<stop offset="0.3288" stop-color="#418B3D"/>
<stop offset="0.6352" stop-color="#419637"/>
<stop offset="0.9319" stop-color="#3FA92D"/>
<stop offset="1" stop-color="#3FAE2A"/>
</linearGradient>
<clipPath id="clip0_24_155">
<rect width="25" height="15" fill="white"/>
</clipPath>
</defs>
</svg>
