<svg width="13" height="10" viewBox="0 0 13 10" fill="none" xmlns="http://www.w3.org/2000/svg">
<path fill-rule="evenodd" clip-rule="evenodd" d="M11.9167 0C11.6133 0 11.3425 0.122222 11.1475 0.322222L4.33333 7.32222L1.8525 4.76667C1.6575 4.56667 1.38667 4.44444 1.08333 4.44444C0.4875 4.44444 0 4.94444 0 5.55556C0 5.86667 0.119167 6.14444 0.314167 6.34444L3.56417 9.67778C3.75917 9.87778 4.03 10 4.33333 10C4.63667 10 4.9075 9.87778 5.1025 9.67778L12.6858 1.9C12.8808 1.7 13 1.42222 13 1.11111C13 0.5 12.5125 0 11.9167 0Z" fill="white"/>
</svg>
